<svg width="73" height="62" viewBox="0 0 73 62" fill="none" xmlns="http://www.w3.org/2000/svg">
<path d="M70.6352 35.1605H63.8027V28.3397C63.8015 27.5965 63.1804 26.9948 62.4153 26.9957C61.6517 26.9967 61.033 27.5979 61.0318 28.3397V35.1605H42.6908V23.507C42.6908 20.1285 45.5103 17.3896 48.9883 17.3896H50.72C51.476 17.4153 52.1102 16.8405 52.1364 16.1061C52.1365 16.1006 52.1367 16.0951 52.1368 16.0898C52.1635 15.3468 51.565 14.7239 50.8002 14.6981C50.7997 14.6981 50.7991 14.6981 50.7987 14.6981H48.9881C43.9486 14.7065 39.8655 18.6729 39.857 23.5682V35.2522H30.2063V32.1935H35.0553C35.8117 32.202 36.4319 31.6133 36.4406 30.8783C36.4406 30.8732 36.4406 30.8681 36.4406 30.863V12.8016C36.4406 12.0668 35.8276 11.471 35.071 11.471C35.0658 11.471 35.0605 11.471 35.0553 11.4711H8.95286C8.19645 11.4626 7.5763 12.0515 7.56751 12.7863C7.56751 12.7914 7.56751 12.7965 7.56751 12.8016V30.7559C7.55872 31.4908 8.16484 32.0932 8.92125 32.1016C8.93174 32.1018 8.94237 32.1018 8.95286 32.1016H13.8018V35.1603H1.56912C0.812708 35.1518 0.19241 35.7406 0.183761 36.4754C0.183619 36.4856 0.183619 36.4958 0.183761 36.5062V43.6788C0.183761 44.422 0.804059 45.0245 1.56912 45.0245H4.10376V60.6542C4.10376 61.3974 4.72406 62 5.48912 62H66.715C67.4801 62 68.1004 61.3974 68.1004 60.6542V45.0247H70.635C71.4001 45.0247 72.0204 44.4221 72.0204 43.6789V36.5064C72.0207 35.7631 71.4004 35.1605 70.6352 35.1605ZM10.3382 29.4101V14.1168H33.6699V29.4101H10.3382ZM27.4355 32.1478V35.2063H16.5725V32.1478H27.4355ZM65.3298 59.2933H6.87462V45.0245H65.3297V59.2933H65.3298ZM69.2498 42.333H2.95462V37.8521H14.951H15.1872H28.821H29.0572H69.25V42.333H69.2498Z" fill="#4B6695"/>
<path d="M50.7199 20.9834C50.7095 21.3705 50.9061 21.735 51.2394 21.947L54.7188 24.2257L56.6395 28.4314C56.8869 29.0175 57.5767 29.2978 58.18 29.0571C58.1913 29.0526 58.2025 29.0479 58.2137 29.0431C58.495 28.9229 58.7197 28.7046 58.8434 28.4314L60.0084 25.8009L60.7326 24.2716L64.2118 21.9776C64.7574 21.6214 64.9051 20.9044 64.5425 20.3718C64.4531 20.2419 64.3413 20.128 64.2118 20.0353L60.7326 17.7566L58.8119 13.5508C58.5643 12.9648 57.8747 12.6845 57.2713 12.9251C57.2599 12.9297 57.2487 12.9344 57.2375 12.9392C56.9564 13.0594 56.7317 13.2777 56.6079 13.5508L54.6872 17.7566L53.2546 18.7048L51.2238 20.0353C50.9054 20.2517 50.717 20.6062 50.7199 20.9834ZM54.9234 20.4482L56.3402 19.5154C56.5268 19.3882 56.674 19.2136 56.7653 19.0107L57.7256 16.9003L58.6859 18.919C58.7773 19.1219 58.9243 19.2965 59.1109 19.4238L61.4095 20.9531L59.1109 22.4825C58.9279 22.6135 58.7817 22.7869 58.6859 22.9873L58.2608 23.9354L57.7256 25.0977L56.7653 22.9873C56.6737 22.7887 56.5262 22.6191 56.3402 22.4979L54.0574 20.9686L54.9234 20.4482Z" fill="#4B6695"/>
<path d="M70.253 6.77215L66.9823 4.59289L65.0813 0.532486C64.8883 0.0890308 64.3617 -0.118493 63.9052 0.0690945C63.6903 0.15731 63.5191 0.323619 63.4282 0.532486L61.598 4.59289L58.2565 6.77215C57.8821 7.03546 57.7748 7.5318 58.0085 7.91916C58.0758 8.01316 58.1598 8.09467 58.2565 8.16005L61.598 10.3508L63.44 14.4456C63.62 14.8873 64.1347 15.1036 64.5895 14.9286C64.6 14.9245 64.6104 14.9202 64.6207 14.9158C64.8252 14.8261 64.989 14.6671 65.0813 14.4685L66.9823 10.4081L70.3238 8.21738C70.6934 7.95108 70.7999 7.45856 70.5718 7.07037C70.5078 6.97379 70.4233 6.89167 70.3238 6.82948L70.253 6.77215ZM65.6952 9.06618C65.5556 9.15708 65.4452 9.28424 65.3764 9.43319L64.2664 11.9336L63.0857 9.46759C63.0169 9.31863 62.9064 9.19147 62.7669 9.10057L60.3699 7.49482L62.8259 5.87749C62.9655 5.78659 63.076 5.65943 63.1447 5.51048L64.3254 3.04447L65.4354 5.51048C65.5041 5.65943 65.6147 5.78659 65.7542 5.87749L68.1628 7.49482L65.6952 9.06618Z" fill="#4B6695"/>
</svg>
