<svg width="276" height="78" viewBox="0 0 276 78" fill="none" xmlns="http://www.w3.org/2000/svg">
<rect width="276" height="78" rx="6" fill="#FAFAFA"/>
<path d="M37.3262 46.2734C35.1569 46.2734 33.3887 45.6081 32.0215 44.2773C30.6634 42.9466 29.9844 41.1738 29.9844 38.959V38.5762C29.9844 37.0905 30.2715 35.7643 30.8457 34.5977C31.4199 33.4219 32.2311 32.5195 33.2793 31.8906C34.3366 31.2526 35.5397 30.9336 36.8887 30.9336C38.9121 30.9336 40.5026 31.5716 41.6602 32.8477C42.8268 34.1237 43.4102 35.9329 43.4102 38.2754V39.8887H33.9902C34.1178 40.8548 34.5007 41.6296 35.1387 42.2129C35.7858 42.7962 36.6016 43.0879 37.5859 43.0879C39.1081 43.0879 40.2975 42.5365 41.1543 41.4336L43.0957 43.6074C42.5033 44.446 41.7012 45.1022 40.6895 45.5762C39.6777 46.041 38.5566 46.2734 37.3262 46.2734ZM36.875 34.1328C36.0911 34.1328 35.4531 34.3971 34.9609 34.9258C34.4779 35.4544 34.168 36.2109 34.0312 37.1953H39.5273V36.8809C39.5091 36.0059 39.2721 35.3314 38.8164 34.8574C38.3607 34.3743 37.7135 34.1328 36.875 34.1328ZM51.8184 43.0879C52.5475 43.0879 53.14 42.8874 53.5957 42.4863C54.0514 42.0853 54.2884 41.5521 54.3066 40.8867H58.0117C58.0026 41.8893 57.7292 42.8099 57.1914 43.6484C56.6536 44.4779 55.9154 45.125 54.9766 45.5898C54.0469 46.0456 53.0169 46.2734 51.8867 46.2734C49.7721 46.2734 48.1042 45.6035 46.8828 44.2637C45.6615 42.9147 45.0508 41.0553 45.0508 38.6855V38.4258C45.0508 36.1471 45.6569 34.3288 46.8691 32.9707C48.0814 31.6126 49.7448 30.9336 51.8594 30.9336C53.7096 30.9336 55.1908 31.4622 56.3027 32.5195C57.4238 33.5677 57.9935 34.9668 58.0117 36.7168H54.3066C54.2884 35.9512 54.0514 35.3314 53.5957 34.8574C53.14 34.3743 52.5384 34.1328 51.791 34.1328C50.8704 34.1328 50.1732 34.4701 49.6992 35.1445C49.2344 35.8099 49.002 36.8945 49.002 38.3984V38.8086C49.002 40.3307 49.2344 41.4245 49.6992 42.0898C50.1641 42.7552 50.8704 43.0879 51.8184 43.0879Z" fill="black"/>
<rect x="17.5" y="16.5" width="54" height="45" rx="9.5" stroke="black"/>
<path d="M89.3262 47.2734C87.1569 47.2734 85.3887 46.6081 84.0215 45.2773C82.6634 43.9466 81.9844 42.1738 81.9844 39.959V39.5762C81.9844 38.0905 82.2715 36.7643 82.8457 35.5977C83.4199 34.4219 84.2311 33.5195 85.2793 32.8906C86.3366 32.2526 87.5397 31.9336 88.8887 31.9336C90.9121 31.9336 92.5026 32.5716 93.6602 33.8477C94.8268 35.1237 95.4102 36.9329 95.4102 39.2754V40.8887H85.9902C86.1178 41.8548 86.5007 42.6296 87.1387 43.2129C87.7858 43.7962 88.6016 44.0879 89.5859 44.0879C91.1081 44.0879 92.2975 43.5365 93.1543 42.4336L95.0957 44.6074C94.5033 45.446 93.7012 46.1022 92.6895 46.5762C91.6777 47.041 90.5566 47.2734 89.3262 47.2734ZM88.875 35.1328C88.0911 35.1328 87.4531 35.3971 86.9609 35.9258C86.4779 36.4544 86.168 37.2109 86.0312 38.1953H91.5273V37.8809C91.5091 37.0059 91.2721 36.3314 90.8164 35.8574C90.3607 35.3743 89.7135 35.1328 88.875 35.1328ZM101.836 47H97.8711V26H101.836V47ZM108.809 32.207L108.932 33.8613C109.98 32.5762 111.397 31.9336 113.184 31.9336C115.089 31.9336 116.396 32.6855 117.107 34.1895C118.146 32.6855 119.628 31.9336 121.551 31.9336C123.155 31.9336 124.349 32.403 125.133 33.3418C125.917 34.2715 126.309 35.6751 126.309 37.5527V47H122.344V37.5664C122.344 36.7279 122.18 36.1172 121.852 35.7344C121.523 35.3424 120.945 35.1465 120.115 35.1465C118.93 35.1465 118.11 35.7116 117.654 36.8418L117.668 47H113.717V37.5801C113.717 36.7233 113.548 36.1035 113.211 35.7207C112.874 35.3379 112.299 35.1465 111.488 35.1465C110.367 35.1465 109.556 35.6113 109.055 36.541V47H105.104V32.207H108.809ZM137.93 47C137.747 46.6445 137.615 46.2025 137.533 45.6738C136.576 46.7402 135.332 47.2734 133.801 47.2734C132.352 47.2734 131.148 46.8542 130.191 46.0156C129.243 45.1771 128.77 44.1198 128.77 42.8438C128.77 41.276 129.348 40.0729 130.506 39.2344C131.673 38.3958 133.354 37.972 135.551 37.9629H137.369V37.1152C137.369 36.4316 137.191 35.8848 136.836 35.4746C136.49 35.0645 135.938 34.8594 135.182 34.8594C134.516 34.8594 133.992 35.0189 133.609 35.3379C133.236 35.6569 133.049 36.0944 133.049 36.6504H129.098C129.098 35.7936 129.362 35.0007 129.891 34.2715C130.419 33.5423 131.167 32.9727 132.133 32.5625C133.099 32.1432 134.184 31.9336 135.387 31.9336C137.21 31.9336 138.654 32.3939 139.721 33.3145C140.796 34.2259 141.334 35.5111 141.334 37.1699V43.582C141.343 44.9857 141.539 46.0475 141.922 46.7676V47H137.93ZM134.662 44.252C135.245 44.252 135.783 44.1243 136.275 43.8691C136.768 43.6048 137.132 43.2539 137.369 42.8164V40.2734H135.893C133.915 40.2734 132.862 40.957 132.734 42.3242L132.721 42.5566C132.721 43.0488 132.894 43.4544 133.24 43.7734C133.587 44.0924 134.061 44.252 134.662 44.252ZM157.494 44.0879C158.223 44.0879 158.816 43.8874 159.271 43.4863C159.727 43.0853 159.964 42.5521 159.982 41.8867H163.688C163.678 42.8893 163.405 43.8099 162.867 44.6484C162.329 45.4779 161.591 46.125 160.652 46.5898C159.723 47.0456 158.693 47.2734 157.562 47.2734C155.448 47.2734 153.78 46.6035 152.559 45.2637C151.337 43.9147 150.727 42.0553 150.727 39.6855V39.4258C150.727 37.1471 151.333 35.3288 152.545 33.9707C153.757 32.6126 155.421 31.9336 157.535 31.9336C159.385 31.9336 160.867 32.4622 161.979 33.5195C163.1 34.5677 163.669 35.9668 163.688 37.7168H159.982C159.964 36.9512 159.727 36.3314 159.271 35.8574C158.816 35.3743 158.214 35.1328 157.467 35.1328C156.546 35.1328 155.849 35.4701 155.375 36.1445C154.91 36.8099 154.678 37.8945 154.678 39.3984V39.8086C154.678 41.3307 154.91 42.4245 155.375 43.0898C155.84 43.7552 156.546 44.0879 157.494 44.0879ZM170.113 47H166.148V26H170.113V47ZM180.189 47.2734C178.02 47.2734 176.252 46.6081 174.885 45.2773C173.527 43.9466 172.848 42.1738 172.848 39.959V39.5762C172.848 38.0905 173.135 36.7643 173.709 35.5977C174.283 34.4219 175.094 33.5195 176.143 32.8906C177.2 32.2526 178.403 31.9336 179.752 31.9336C181.775 31.9336 183.366 32.5716 184.523 33.8477C185.69 35.1237 186.273 36.9329 186.273 39.2754V40.8887H176.854C176.981 41.8548 177.364 42.6296 178.002 43.2129C178.649 43.7962 179.465 44.0879 180.449 44.0879C181.971 44.0879 183.161 43.5365 184.018 42.4336L185.959 44.6074C185.367 45.446 184.564 46.1022 183.553 46.5762C182.541 47.041 181.42 47.2734 180.189 47.2734ZM179.738 35.1328C178.954 35.1328 178.316 35.3971 177.824 35.9258C177.341 36.4544 177.031 37.2109 176.895 38.1953H182.391V37.8809C182.372 37.0059 182.135 36.3314 181.68 35.8574C181.224 35.3743 180.577 35.1328 179.738 35.1328ZM197.102 47C196.919 46.6445 196.787 46.2025 196.705 45.6738C195.748 46.7402 194.504 47.2734 192.973 47.2734C191.523 47.2734 190.32 46.8542 189.363 46.0156C188.415 45.1771 187.941 44.1198 187.941 42.8438C187.941 41.276 188.52 40.0729 189.678 39.2344C190.844 38.3958 192.526 37.972 194.723 37.9629H196.541V37.1152C196.541 36.4316 196.363 35.8848 196.008 35.4746C195.661 35.0645 195.11 34.8594 194.354 34.8594C193.688 34.8594 193.164 35.0189 192.781 35.3379C192.408 35.6569 192.221 36.0944 192.221 36.6504H188.27C188.27 35.7936 188.534 35.0007 189.062 34.2715C189.591 33.5423 190.339 32.9727 191.305 32.5625C192.271 32.1432 193.355 31.9336 194.559 31.9336C196.382 31.9336 197.826 32.3939 198.893 33.3145C199.968 34.2259 200.506 35.5111 200.506 37.1699V43.582C200.515 44.9857 200.711 46.0475 201.094 46.7676V47H197.102ZM193.834 44.252C194.417 44.252 194.955 44.1243 195.447 43.8691C195.939 43.6048 196.304 43.2539 196.541 42.8164V40.2734H195.064C193.087 40.2734 192.034 40.957 191.906 42.3242L191.893 42.5566C191.893 43.0488 192.066 43.4544 192.412 43.7734C192.758 44.0924 193.232 44.252 193.834 44.252ZM207.178 32.207L207.301 33.916C208.358 32.5944 209.775 31.9336 211.553 31.9336C213.12 31.9336 214.287 32.3939 215.053 33.3145C215.818 34.235 216.21 35.6113 216.229 37.4434V47H212.277V37.5391C212.277 36.7005 212.095 36.0944 211.73 35.7207C211.366 35.3379 210.76 35.1465 209.912 35.1465C208.8 35.1465 207.966 35.6204 207.41 36.5684V47H203.459V32.207H207.178ZM223.406 47H219.441V32.207H223.406V47ZM219.209 28.3789C219.209 27.7865 219.405 27.2988 219.797 26.916C220.198 26.5332 220.74 26.3418 221.424 26.3418C222.098 26.3418 222.636 26.5332 223.037 26.916C223.438 27.2988 223.639 27.7865 223.639 28.3789C223.639 28.9805 223.434 29.4727 223.023 29.8555C222.622 30.2383 222.089 30.4297 221.424 30.4297C220.758 30.4297 220.221 30.2383 219.811 29.8555C219.41 29.4727 219.209 28.9805 219.209 28.3789ZM230.311 32.207L230.434 33.916C231.491 32.5944 232.908 31.9336 234.686 31.9336C236.253 31.9336 237.42 32.3939 238.186 33.3145C238.951 34.235 239.343 35.6113 239.361 37.4434V47H235.41V37.5391C235.41 36.7005 235.228 36.0944 234.863 35.7207C234.499 35.3379 233.893 35.1465 233.045 35.1465C231.933 35.1465 231.099 35.6204 230.543 36.5684V47H226.592V32.207H230.311ZM241.795 39.4941C241.795 37.2246 242.333 35.3971 243.408 34.0117C244.493 32.6263 245.951 31.9336 247.783 31.9336C249.406 31.9336 250.668 32.4896 251.57 33.6016L251.734 32.207H255.316V46.5078C255.316 47.8021 255.02 48.9277 254.428 49.8848C253.844 50.8418 253.02 51.571 251.953 52.0723C250.887 52.5736 249.638 52.8242 248.207 52.8242C247.122 52.8242 246.065 52.6055 245.035 52.168C244.005 51.7396 243.226 51.1836 242.697 50.5L244.447 48.0938C245.432 49.1966 246.626 49.748 248.029 49.748C249.077 49.748 249.893 49.4655 250.477 48.9004C251.06 48.3444 251.352 47.5514 251.352 46.5215V45.7285C250.44 46.7585 249.242 47.2734 247.756 47.2734C245.979 47.2734 244.538 46.5807 243.436 45.1953C242.342 43.8008 241.795 41.9551 241.795 39.6582V39.4941ZM245.746 39.7812C245.746 41.1211 246.015 42.1738 246.553 42.9395C247.09 43.696 247.829 44.0742 248.768 44.0742C249.971 44.0742 250.832 43.623 251.352 42.7207V36.5C250.823 35.5977 249.971 35.1465 248.795 35.1465C247.847 35.1465 247.1 35.5339 246.553 36.3086C246.015 37.0833 245.746 38.2409 245.746 39.7812Z" fill="black"/>
</svg>
