<svg width="289" height="82" viewBox="0 0 289 82" fill="none" xmlns="http://www.w3.org/2000/svg">
<g filter="url(#filter0_d)">
<path d="M75.5 37C75.5 54.8369 60.6154 69.5 42 69.5C23.3846 69.5 8.5 54.8369 8.5 37C8.5 19.1631 23.3846 4.5 42 4.5C60.6154 4.5 75.5 19.1631 75.5 37Z" stroke="#F8FAF5" stroke-width="9"/>
<g filter="url(#filter1_d)">
<path d="M66.631 34.1801C68.7391 34.6369 68.7305 37.6469 66.6199 38.0917L41.6105 43.3626C40.3651 43.6251 39.1945 42.6727 39.1981 41.3999L39.2285 30.7161C39.2321 29.4433 40.4081 28.4976 41.652 28.7672L66.631 34.1801Z" fill="#F8FAF5"/>
</g>
<ellipse cx="41.5" cy="36" rx="7.5" ry="8" fill="#F8FAF5"/>
<g filter="url(#filter2_d)">
<path d="M104.35 45.225C104.35 46.575 103.833 47.5917 102.8 48.275C101.767 48.9583 100.083 49.3 97.75 49.3C96.6833 49.3 95.775 49.225 95.025 49.075C94.2917 48.9417 93.6833 48.7417 93.2 48.475C92.7333 48.2083 92.3917 47.8833 92.175 47.5C91.9583 47.1167 91.85 46.675 91.85 46.175C91.85 45.4583 92.0417 44.9 92.425 44.5C92.825 44.1 93.375 43.825 94.075 43.675V43.4C93.0917 43.0833 92.6 42.4167 92.6 41.4C92.6 40.7333 92.825 40.225 93.275 39.875C93.725 39.5083 94.2667 39.25 94.9 39.1V39C94.1333 38.6333 93.5417 38.125 93.125 37.475C92.725 36.8083 92.525 36.0333 92.525 35.15C92.525 33.8167 92.9667 32.7417 93.85 31.925C94.75 31.1083 96.0333 30.7 97.7 30.7C98.6167 30.7 99.4 30.8333 100.05 31.1V30.75C100.05 30.1667 100.183 29.7167 100.45 29.4C100.733 29.0667 101.167 28.9 101.75 28.9H103.75V31.1H101.1V31.625C101.683 32.0083 102.133 32.5083 102.45 33.125C102.767 33.725 102.925 34.4 102.925 35.15C102.925 36.4667 102.475 37.5333 101.575 38.35C100.675 39.15 99.3917 39.55 97.725 39.55C97.0917 39.55 96.525 39.4833 96.025 39.35C95.6917 39.4667 95.4 39.6333 95.15 39.85C94.9 40.05 94.775 40.3167 94.775 40.65C94.775 41 94.9333 41.25 95.25 41.4C95.5667 41.55 96.0167 41.625 96.6 41.625H99.8C101.4 41.625 102.558 41.95 103.275 42.6C103.992 43.2333 104.35 44.1083 104.35 45.225ZM101.8 45.525C101.8 45.075 101.625 44.7167 101.275 44.45C100.942 44.1833 100.325 44.05 99.425 44.05H95.025C94.425 44.4 94.125 44.9 94.125 45.55C94.125 46.0833 94.3333 46.5083 94.75 46.825C95.1833 47.1583 95.9083 47.325 96.925 47.325H98.625C100.742 47.325 101.8 46.725 101.8 45.525ZM97.725 37.575C98.525 37.575 99.1417 37.4 99.575 37.05C100.025 36.6833 100.25 36.125 100.25 35.375V34.875C100.25 34.125 100.025 33.575 99.575 33.225C99.1417 32.8583 98.525 32.675 97.725 32.675C96.925 32.675 96.3 32.8583 95.85 33.225C95.4167 33.575 95.2 34.125 95.2 34.875V35.375C95.2 36.125 95.4167 36.6833 95.85 37.05C96.3 37.4 96.925 37.575 97.725 37.575ZM111.331 44.3C110.398 44.3 109.565 44.1417 108.831 43.825C108.098 43.5083 107.473 43.0583 106.956 42.475C106.44 41.875 106.04 41.1583 105.756 40.325C105.49 39.475 105.356 38.5333 105.356 37.5C105.356 36.4667 105.49 35.5333 105.756 34.7C106.04 33.85 106.44 33.1333 106.956 32.55C107.473 31.95 108.098 31.4917 108.831 31.175C109.565 30.8583 110.398 30.7 111.331 30.7C112.281 30.7 113.115 30.8667 113.831 31.2C114.565 31.5333 115.173 32 115.656 32.6C116.14 33.1833 116.498 33.8667 116.731 34.65C116.981 35.4333 117.106 36.275 117.106 37.175V38.2H108.181V38.625C108.181 39.625 108.473 40.45 109.056 41.1C109.656 41.7333 110.506 42.05 111.606 42.05C112.406 42.05 113.081 41.875 113.631 41.525C114.181 41.175 114.648 40.7 115.031 40.1L116.631 41.675C116.148 42.475 115.448 43.1167 114.531 43.6C113.615 44.0667 112.548 44.3 111.331 44.3ZM111.331 32.825C110.865 32.825 110.431 32.9083 110.031 33.075C109.648 33.2417 109.315 33.475 109.031 33.775C108.765 34.075 108.556 34.4333 108.406 34.85C108.256 35.2667 108.181 35.725 108.181 36.225V36.4H114.231V36.15C114.231 35.15 113.973 34.35 113.456 33.75C112.94 33.1333 112.231 32.825 111.331 32.825ZM120.123 44V31H122.848V33.15H122.973C123.256 32.45 123.681 31.8667 124.248 31.4C124.831 30.9333 125.623 30.7 126.623 30.7C127.956 30.7 128.99 31.1417 129.723 32.025C130.473 32.8917 130.848 34.1333 130.848 35.75V44H128.123V36.1C128.123 34.0667 127.306 33.05 125.673 33.05C125.323 33.05 124.973 33.1 124.623 33.2C124.29 33.2833 123.99 33.4167 123.723 33.6C123.456 33.7833 123.24 34.0167 123.073 34.3C122.923 34.5833 122.848 34.9167 122.848 35.3V44H120.123ZM139.725 44.3C138.791 44.3 137.958 44.1417 137.225 43.825C136.491 43.5083 135.866 43.0583 135.35 42.475C134.833 41.875 134.433 41.1583 134.15 40.325C133.883 39.475 133.75 38.5333 133.75 37.5C133.75 36.4667 133.883 35.5333 134.15 34.7C134.433 33.85 134.833 33.1333 135.35 32.55C135.866 31.95 136.491 31.4917 137.225 31.175C137.958 30.8583 138.791 30.7 139.725 30.7C140.675 30.7 141.508 30.8667 142.225 31.2C142.958 31.5333 143.566 32 144.05 32.6C144.533 33.1833 144.891 33.8667 145.125 34.65C145.375 35.4333 145.5 36.275 145.5 37.175V38.2H136.575V38.625C136.575 39.625 136.866 40.45 137.45 41.1C138.05 41.7333 138.9 42.05 140 42.05C140.8 42.05 141.475 41.875 142.025 41.525C142.575 41.175 143.041 40.7 143.425 40.1L145.025 41.675C144.541 42.475 143.841 43.1167 142.925 43.6C142.008 44.0667 140.941 44.3 139.725 44.3ZM139.725 32.825C139.258 32.825 138.825 32.9083 138.425 33.075C138.041 33.2417 137.708 33.475 137.425 33.775C137.158 34.075 136.95 34.4333 136.8 34.85C136.65 35.2667 136.575 35.725 136.575 36.225V36.4H142.625V36.15C142.625 35.15 142.366 34.35 141.85 33.75C141.333 33.1333 140.625 32.825 139.725 32.825ZM152.641 44.3C151.408 44.3 150.375 44.0833 149.541 43.65C148.708 43.2167 147.983 42.6167 147.366 41.85L149.116 40.25C149.6 40.8333 150.133 41.2917 150.716 41.625C151.316 41.9417 152.008 42.1 152.791 42.1C153.591 42.1 154.183 41.95 154.566 41.65C154.966 41.3333 155.166 40.9 155.166 40.35C155.166 39.9333 155.025 39.5833 154.741 39.3C154.475 39 154 38.8083 153.316 38.725L152.116 38.575C150.783 38.4083 149.733 38.025 148.966 37.425C148.216 36.8083 147.841 35.9 147.841 34.7C147.841 34.0667 147.958 33.5083 148.191 33.025C148.425 32.525 148.75 32.1083 149.166 31.775C149.6 31.425 150.108 31.1583 150.691 30.975C151.291 30.7917 151.95 30.7 152.666 30.7C153.833 30.7 154.783 30.8833 155.516 31.25C156.266 31.6167 156.933 32.125 157.516 32.775L155.841 34.375C155.508 33.975 155.066 33.6333 154.516 33.35C153.983 33.05 153.366 32.9 152.666 32.9C151.916 32.9 151.358 33.05 150.991 33.35C150.641 33.65 150.466 34.0417 150.466 34.525C150.466 35.025 150.625 35.4 150.941 35.65C151.258 35.9 151.766 36.0833 152.466 36.2L153.666 36.35C155.1 36.5667 156.141 36.9917 156.791 37.625C157.458 38.2417 157.791 39.075 157.791 40.125C157.791 40.7583 157.666 41.3333 157.416 41.85C157.183 42.35 156.841 42.7833 156.391 43.15C155.941 43.5167 155.4 43.8 154.766 44C154.133 44.2 153.425 44.3 152.641 44.3ZM162.245 28.675C161.678 28.675 161.262 28.5417 160.995 28.275C160.745 28.0083 160.62 27.6667 160.62 27.25V26.825C160.62 26.4083 160.745 26.0667 160.995 25.8C161.262 25.5333 161.678 25.4 162.245 25.4C162.812 25.4 163.22 25.5333 163.47 25.8C163.72 26.0667 163.845 26.4083 163.845 26.825V27.25C163.845 27.6667 163.72 28.0083 163.47 28.275C163.22 28.5417 162.812 28.675 162.245 28.675ZM160.87 31H163.595V44H160.87V31ZM171.611 44.3C170.378 44.3 169.344 44.0833 168.511 43.65C167.678 43.2167 166.953 42.6167 166.336 41.85L168.086 40.25C168.569 40.8333 169.103 41.2917 169.686 41.625C170.286 41.9417 170.978 42.1 171.761 42.1C172.561 42.1 173.153 41.95 173.536 41.65C173.936 41.3333 174.136 40.9 174.136 40.35C174.136 39.9333 173.994 39.5833 173.711 39.3C173.444 39 172.969 38.8083 172.286 38.725L171.086 38.575C169.753 38.4083 168.703 38.025 167.936 37.425C167.186 36.8083 166.811 35.9 166.811 34.7C166.811 34.0667 166.928 33.5083 167.161 33.025C167.394 32.525 167.719 32.1083 168.136 31.775C168.569 31.425 169.078 31.1583 169.661 30.975C170.261 30.7917 170.919 30.7 171.636 30.7C172.803 30.7 173.753 30.8833 174.486 31.25C175.236 31.6167 175.903 32.125 176.486 32.775L174.811 34.375C174.478 33.975 174.036 33.6333 173.486 33.35C172.953 33.05 172.336 32.9 171.636 32.9C170.886 32.9 170.328 33.05 169.961 33.35C169.611 33.65 169.436 34.0417 169.436 34.525C169.436 35.025 169.594 35.4 169.911 35.65C170.228 35.9 170.736 36.0833 171.436 36.2L172.636 36.35C174.069 36.5667 175.111 36.9917 175.761 37.625C176.428 38.2417 176.761 39.075 176.761 40.125C176.761 40.7583 176.636 41.3333 176.386 41.85C176.153 42.35 175.811 42.7833 175.361 43.15C174.911 43.5167 174.369 43.8 173.736 44C173.103 44.2 172.394 44.3 171.611 44.3ZM189.873 44.3C188.64 44.3 187.606 44.0833 186.773 43.65C185.94 43.2167 185.215 42.6167 184.598 41.85L186.348 40.25C186.831 40.8333 187.365 41.2917 187.948 41.625C188.548 41.9417 189.24 42.1 190.023 42.1C190.823 42.1 191.415 41.95 191.798 41.65C192.198 41.3333 192.398 40.9 192.398 40.35C192.398 39.9333 192.256 39.5833 191.973 39.3C191.706 39 191.231 38.8083 190.548 38.725L189.348 38.575C188.015 38.4083 186.965 38.025 186.198 37.425C185.448 36.8083 185.073 35.9 185.073 34.7C185.073 34.0667 185.19 33.5083 185.423 33.025C185.656 32.525 185.981 32.1083 186.398 31.775C186.831 31.425 187.34 31.1583 187.923 30.975C188.523 30.7917 189.181 30.7 189.898 30.7C191.065 30.7 192.015 30.8833 192.748 31.25C193.498 31.6167 194.165 32.125 194.748 32.775L193.073 34.375C192.74 33.975 192.298 33.6333 191.748 33.35C191.215 33.05 190.598 32.9 189.898 32.9C189.148 32.9 188.59 33.05 188.223 33.35C187.873 33.65 187.698 34.0417 187.698 34.525C187.698 35.025 187.856 35.4 188.173 35.65C188.49 35.9 188.998 36.0833 189.698 36.2L190.898 36.35C192.331 36.5667 193.373 36.9917 194.023 37.625C194.69 38.2417 195.023 39.075 195.023 40.125C195.023 40.7583 194.898 41.3333 194.648 41.85C194.415 42.35 194.073 42.7833 193.623 43.15C193.173 43.5167 192.631 43.8 191.998 44C191.365 44.2 190.656 44.3 189.873 44.3ZM205.735 31H208.36L202.885 46.575C202.735 47.0083 202.56 47.375 202.36 47.675C202.176 47.9917 201.951 48.2417 201.685 48.425C201.435 48.625 201.126 48.7667 200.76 48.85C200.393 48.95 199.96 49 199.46 49H197.885V46.775H200.085L200.835 44.575L196.11 31H198.835L201.435 38.65L202.185 41.475H202.31L203.135 38.65L205.735 31ZM214.58 44.3C213.347 44.3 212.313 44.0833 211.48 43.65C210.647 43.2167 209.922 42.6167 209.305 41.85L211.055 40.25C211.538 40.8333 212.072 41.2917 212.655 41.625C213.255 41.9417 213.947 42.1 214.73 42.1C215.53 42.1 216.122 41.95 216.505 41.65C216.905 41.3333 217.105 40.9 217.105 40.35C217.105 39.9333 216.963 39.5833 216.68 39.3C216.413 39 215.938 38.8083 215.255 38.725L214.055 38.575C212.722 38.4083 211.672 38.025 210.905 37.425C210.155 36.8083 209.78 35.9 209.78 34.7C209.78 34.0667 209.897 33.5083 210.13 33.025C210.363 32.525 210.688 32.1083 211.105 31.775C211.538 31.425 212.047 31.1583 212.63 30.975C213.23 30.7917 213.888 30.7 214.605 30.7C215.772 30.7 216.722 30.8833 217.455 31.25C218.205 31.6167 218.872 32.125 219.455 32.775L217.78 34.375C217.447 33.975 217.005 33.6333 216.455 33.35C215.922 33.05 215.305 32.9 214.605 32.9C213.855 32.9 213.297 33.05 212.93 33.35C212.58 33.65 212.405 34.0417 212.405 34.525C212.405 35.025 212.563 35.4 212.88 35.65C213.197 35.9 213.705 36.0833 214.405 36.2L215.605 36.35C217.038 36.5667 218.08 36.9917 218.73 37.625C219.397 38.2417 219.73 39.075 219.73 40.125C219.73 40.7583 219.605 41.3333 219.355 41.85C219.122 42.35 218.78 42.7833 218.33 43.15C217.88 43.5167 217.338 43.8 216.705 44C216.072 44.2 215.363 44.3 214.58 44.3ZM226.238 44C225.288 44 224.571 43.7583 224.088 43.275C223.604 42.775 223.363 42.075 223.363 41.175V33.225H221.338V31H222.438C222.888 31 223.196 30.9 223.363 30.7C223.546 30.5 223.638 30.175 223.638 29.725V27.45H226.088V31H228.813V33.225H226.088V41.775H228.613V44H226.238ZM236.771 44.3C235.837 44.3 235.004 44.1417 234.271 43.825C233.537 43.5083 232.912 43.0583 232.396 42.475C231.879 41.875 231.479 41.1583 231.196 40.325C230.929 39.475 230.796 38.5333 230.796 37.5C230.796 36.4667 230.929 35.5333 231.196 34.7C231.479 33.85 231.879 33.1333 232.396 32.55C232.912 31.95 233.537 31.4917 234.271 31.175C235.004 30.8583 235.837 30.7 236.771 30.7C237.721 30.7 238.554 30.8667 239.271 31.2C240.004 31.5333 240.612 32 241.096 32.6C241.579 33.1833 241.937 33.8667 242.171 34.65C242.421 35.4333 242.546 36.275 242.546 37.175V38.2H233.621V38.625C233.621 39.625 233.912 40.45 234.496 41.1C235.096 41.7333 235.946 42.05 237.046 42.05C237.846 42.05 238.521 41.875 239.071 41.525C239.621 41.175 240.087 40.7 240.471 40.1L242.071 41.675C241.587 42.475 240.887 43.1167 239.971 43.6C239.054 44.0667 237.987 44.3 236.771 44.3ZM236.771 32.825C236.304 32.825 235.871 32.9083 235.471 33.075C235.087 33.2417 234.754 33.475 234.471 33.775C234.204 34.075 233.996 34.4333 233.846 34.85C233.696 35.2667 233.621 35.725 233.621 36.225V36.4H239.671V36.15C239.671 35.15 239.412 34.35 238.896 33.75C238.379 33.1333 237.671 32.825 236.771 32.825ZM245.562 44V31H248.287V33.15H248.412C248.546 32.8167 248.704 32.5 248.887 32.2C249.087 31.9 249.321 31.6417 249.587 31.425C249.871 31.1917 250.196 31.0167 250.562 30.9C250.946 30.7667 251.387 30.7 251.887 30.7C252.771 30.7 253.554 30.9167 254.237 31.35C254.921 31.7833 255.421 32.45 255.737 33.35H255.812C256.046 32.6167 256.496 31.9917 257.162 31.475C257.829 30.9583 258.687 30.7 259.737 30.7C261.037 30.7 262.046 31.1417 262.762 32.025C263.479 32.8917 263.837 34.1333 263.837 35.75V44H261.112V36.075C261.112 35.075 260.921 34.325 260.537 33.825C260.154 33.3083 259.546 33.05 258.712 33.05C258.362 33.05 258.029 33.1 257.712 33.2C257.396 33.2833 257.112 33.4167 256.862 33.6C256.629 33.7833 256.437 34.0167 256.287 34.3C256.137 34.5833 256.062 34.9083 256.062 35.275V44H253.337V36.075C253.337 34.0583 252.546 33.05 250.962 33.05C250.629 33.05 250.296 33.1 249.962 33.2C249.646 33.2833 249.362 33.4167 249.112 33.6C248.862 33.7833 248.662 34.0167 248.512 34.3C248.362 34.5833 248.287 34.9083 248.287 35.275V44H245.562ZM271.733 44.3C270.5 44.3 269.467 44.0833 268.633 43.65C267.8 43.2167 267.075 42.6167 266.458 41.85L268.208 40.25C268.692 40.8333 269.225 41.2917 269.808 41.625C270.408 41.9417 271.1 42.1 271.883 42.1C272.683 42.1 273.275 41.95 273.658 41.65C274.058 41.3333 274.258 40.9 274.258 40.35C274.258 39.9333 274.117 39.5833 273.833 39.3C273.567 39 273.092 38.8083 272.408 38.725L271.208 38.575C269.875 38.4083 268.825 38.025 268.058 37.425C267.308 36.8083 266.933 35.9 266.933 34.7C266.933 34.0667 267.05 33.5083 267.283 33.025C267.517 32.525 267.842 32.1083 268.258 31.775C268.692 31.425 269.2 31.1583 269.783 30.975C270.383 30.7917 271.042 30.7 271.758 30.7C272.925 30.7 273.875 30.8833 274.608 31.25C275.358 31.6167 276.025 32.125 276.608 32.775L274.933 34.375C274.6 33.975 274.158 33.6333 273.608 33.35C273.075 33.05 272.458 32.9 271.758 32.9C271.008 32.9 270.45 33.05 270.083 33.35C269.733 33.65 269.558 34.0417 269.558 34.525C269.558 35.025 269.717 35.4 270.033 35.65C270.35 35.9 270.858 36.0833 271.558 36.2L272.758 36.35C274.192 36.5667 275.233 36.9917 275.883 37.625C276.55 38.2417 276.883 39.075 276.883 40.125C276.883 40.7583 276.758 41.3333 276.508 41.85C276.275 42.35 275.933 42.7833 275.483 43.15C275.033 43.5167 274.492 43.8 273.858 44C273.225 44.2 272.517 44.3 271.733 44.3Z" fill="#F8FAF5"/>
</g>
</g>
<defs>
<filter id="filter0_d" x="0" y="0" width="293" height="86" filterUnits="userSpaceOnUse" color-interpolation-filters="sRGB">
<feFlood flood-opacity="0" result="BackgroundImageFix"/>
<feColorMatrix in="SourceAlpha" type="matrix" values="0 0 0 0 0 0 0 0 0 0 0 0 0 0 0 0 0 0 127 0"/>
<feOffset dy="4"/>
<feGaussianBlur stdDeviation="2"/>
<feColorMatrix type="matrix" values="0 0 0 0 0 0 0 0 0 0 0 0 0 0 0 0 0 0 0.25 0"/>
<feBlend mode="normal" in2="BackgroundImageFix" result="effect1_dropShadow"/>
<feBlend mode="normal" in="SourceGraphic" in2="effect1_dropShadow" result="shape"/>
</filter>
<filter id="filter1_d" x="35.1924" y="28.7153" width="37.0359" height="22.7677" filterUnits="userSpaceOnUse" color-interpolation-filters="sRGB">
<feFlood flood-opacity="0" result="BackgroundImageFix"/>
<feColorMatrix in="SourceAlpha" type="matrix" values="0 0 0 0 0 0 0 0 0 0 0 0 0 0 0 0 0 0 127 0"/>
<feOffset dy="4"/>
<feGaussianBlur stdDeviation="2"/>
<feColorMatrix type="matrix" values="0 0 0 0 0 0 0 0 0 0 0 0 0 0 0 0 0 0 0.15 0"/>
<feBlend mode="normal" in2="BackgroundImageFix" result="effect1_dropShadow"/>
<feBlend mode="normal" in="SourceGraphic" in2="effect1_dropShadow" result="shape"/>
</filter>
<filter id="filter2_d" x="87.85" y="25.4" width="193.033" height="31.9" filterUnits="userSpaceOnUse" color-interpolation-filters="sRGB">
<feFlood flood-opacity="0" result="BackgroundImageFix"/>
<feColorMatrix in="SourceAlpha" type="matrix" values="0 0 0 0 0 0 0 0 0 0 0 0 0 0 0 0 0 0 127 0"/>
<feOffset dy="4"/>
<feGaussianBlur stdDeviation="2"/>
<feColorMatrix type="matrix" values="0 0 0 0 0 0 0 0 0 0 0 0 0 0 0 0 0 0 0.02 0"/>
<feBlend mode="normal" in2="BackgroundImageFix" result="effect1_dropShadow"/>
<feBlend mode="normal" in="SourceGraphic" in2="effect1_dropShadow" result="shape"/>
</filter>
</defs>
</svg>
